<svg width="42" height="42" viewBox="0 0 42 42" fill="none" xmlns="http://www.w3.org/2000/svg">
<path d="M1.25 8.5H32.75" stroke="black" stroke-width="2" stroke-linecap="round" stroke-linejoin="round"/>
<path d="M24 15.5C24 17.3565 23.2625 19.137 21.9497 20.4497C20.637 21.7625 18.8565 22.5 17 22.5C15.1435 22.5 13.363 21.7625 12.0503 20.4497C10.7375 19.137 10 17.3565 10 15.5" stroke="black" stroke-width="2" stroke-linecap="round" stroke-linejoin="round"/>
<path fill-rule="evenodd" clip-rule="evenodd" d="M5.7 0.9C5.88885 0.648194 6.18524 0.5 6.5 0.5H27.5C27.8148 0.5 28.1111 0.648194 28.3 0.9L33.55 7.9C33.6798 8.0731 33.75 8.28363 33.75 8.5V22.6049C33.3906 21.6392 32.6688 20.8499 31.75 20.4021V8.83333L27 2.5H7L2.25 8.83333V33C2.25 33.663 2.51339 34.2989 2.98223 34.7678C3.45107 35.2366 4.08696 35.5 4.75 35.5H26V37.5H4.75C3.55653 37.5 2.41193 37.0259 1.56802 36.182C0.724106 35.3381 0.25 34.1935 0.25 33V8.5C0.25 8.28363 0.320178 8.0731 0.45 7.9L5.7 0.9Z" fill="black"/>
<g filter="url(#filter0_d)">
<path d="M30 23V37" stroke="black" stroke-width="2" stroke-linecap="round" stroke-linejoin="round"/>
</g>
<g filter="url(#filter1_d)">
<path d="M23 30H37" stroke="black" stroke-width="2" stroke-linecap="round" stroke-linejoin="round"/>
</g>
<defs>
<filter id="filter0_d" x="29" y="22" width="2" height="16" filterUnits="userSpaceOnUse" color-interpolation-filters="sRGB">
<feFlood flood-opacity="0" result="BackgroundImageFix"/>
<feColorMatrix in="SourceAlpha" type="matrix" values="0 0 0 0 0 0 0 0 0 0 0 0 0 0 0 0 0 0 127 0"/>
<feOffset/>
<feColorMatrix type="matrix" values="0 0 0 0 0.94902 0 0 0 0 0.94902 0 0 0 0 0.94902 0 0 0 1 0"/>
<feBlend mode="normal" in2="BackgroundImageFix" result="effect1_dropShadow"/>
<feBlend mode="normal" in="SourceGraphic" in2="effect1_dropShadow" result="shape"/>
</filter>
<filter id="filter1_d" x="22" y="29" width="16" height="2" filterUnits="userSpaceOnUse" color-interpolation-filters="sRGB">
<feFlood flood-opacity="0" result="BackgroundImageFix"/>
<feColorMatrix in="SourceAlpha" type="matrix" values="0 0 0 0 0 0 0 0 0 0 0 0 0 0 0 0 0 0 127 0"/>
<feOffset/>
<feColorMatrix type="matrix" values="0 0 0 0 0.94902 0 0 0 0 0.94902 0 0 0 0 0.94902 0 0 0 1 0"/>
<feBlend mode="normal" in2="BackgroundImageFix" result="effect1_dropShadow"/>
<feBlend mode="normal" in="SourceGraphic" in2="effect1_dropShadow" result="shape"/>
</filter>
</defs>
</svg>
