<svg width="49" height="56" viewBox="0 0 49 56" fill="none" xmlns="http://www.w3.org/2000/svg">
<path fill-rule="evenodd" clip-rule="evenodd" d="M29.5752 13.965C29.3497 13.9645 29.1265 13.9196 28.9184 13.8328C28.7103 13.746 28.5213 13.6189 28.3623 13.459C28.2033 13.299 28.0775 13.1093 27.9919 12.9006C27.9064 12.692 27.8628 12.4685 27.8637 12.243C27.8656 9.91545 26.9444 7.68214 25.3022 6.03271C23.66 4.38328 21.4308 3.45234 19.1032 3.444C16.776 3.45234 14.5471 4.38339 12.9055 6.03292C11.2638 7.68245 10.3434 9.91577 10.3462 12.243C10.3567 12.4745 10.3201 12.7057 10.2387 12.9227C10.1574 13.1397 10.0329 13.3379 9.87274 13.5054C9.71262 13.673 9.52021 13.8063 9.30713 13.8974C9.09404 13.9885 8.86471 14.0355 8.63297 14.0355C8.40123 14.0355 8.1719 13.9885 7.95881 13.8974C7.74573 13.8063 7.55332 13.673 7.3932 13.5054C7.23308 13.3379 7.10857 13.1397 7.02719 12.9227C6.94581 12.7057 6.90925 12.4745 6.91972 12.243C6.91972 5.4915 12.3867 0 19.1032 0C25.8232 0 31.2902 5.4915 31.2902 12.243C31.2911 12.4688 31.2475 12.6926 31.1617 12.9015C31.0759 13.1103 30.9497 13.3002 30.7904 13.4602C30.631 13.6202 30.4417 13.7472 30.2331 13.8338C30.0246 13.9204 29.801 13.965 29.5752 13.965Z" fill="url(#paint0_linear)"/>
<path fill-rule="evenodd" clip-rule="evenodd" d="M40.0679 13.965C39.8427 13.9641 39.6199 13.9188 39.4122 13.8318C39.2045 13.7447 39.0159 13.6176 38.8573 13.4577C38.6987 13.2978 38.5731 13.1083 38.4878 12.8998C38.4025 12.6914 38.359 12.4682 38.3599 12.243C38.3599 7.392 34.4434 3.444 29.6379 3.444C29.4127 3.44308 29.1899 3.39781 28.9822 3.31078C28.7745 3.22374 28.5859 3.09665 28.4273 2.93674C28.2687 2.77684 28.1431 2.58726 28.0578 2.37884C27.9725 2.17041 27.929 1.94722 27.9299 1.722C27.929 1.49678 27.9725 1.27359 28.0578 1.06516C28.1431 0.856737 28.2687 0.66716 28.4273 0.507257C28.5859 0.347355 28.7745 0.220257 28.9822 0.133222C29.1899 0.0461861 29.4127 0.000917379 29.6379 0C36.3299 0 41.7794 5.4915 41.7794 12.243C41.7804 12.6982 41.6007 13.1351 41.2798 13.458C40.959 13.7808 40.5231 13.9631 40.0679 13.965Z" fill="url(#paint1_linear)"/>
<path fill-rule="evenodd" clip-rule="evenodd" d="M41.9932 10.7765V55.9265H46.6447C47.7892 55.9265 48.7237 55.0375 48.7237 53.9455V12.6175C48.7237 11.5185 47.7892 10.64 46.6447 10.64L41.9932 10.7765Z" fill="url(#paint2_linear)"/>
<path fill-rule="evenodd" clip-rule="evenodd" d="M0 12.6175C0 11.5219 0.948486 10.64 2.10352 10.64H38.1956L38.1746 55.9265H2.10352C0.948486 55.9265 0 55.0374 0 53.9455V12.6175ZM19.0459 30.5682L10.946 22.4682C10.7844 22.3104 10.592 22.1875 10.3809 22.1072C10.1697 22.027 9.94434 21.9911 9.71875 22.0019C9.27246 22.0307 8.85205 22.221 8.53589 22.5372C8.21973 22.8534 8.0293 23.2738 8.00049 23.72C7.99512 23.9377 8.03369 24.1542 8.11377 24.3566C8.19385 24.5591 8.31396 24.7433 8.4668 24.8982L16.616 33.0473L8.49146 41.1718C8.33398 41.3248 8.20947 41.508 8.125 41.7106C8.04053 41.9131 7.99829 42.1306 8.00049 42.35C8.02417 42.8046 8.21533 43.2342 8.53711 43.5561C8.85913 43.8779 9.28882 44.0691 9.74316 44.0928C9.9707 44.1003 10.197 44.0605 10.4084 43.976C10.6196 43.8915 10.811 43.7641 10.9705 43.6019L19.0459 35.5264L27.146 43.6019C27.2744 43.7325 27.4233 43.8405 27.5867 43.9217C27.6262 43.9414 27.6667 43.9595 27.708 43.976C27.7927 44.0099 27.8799 44.0367 27.9688 44.056C28.1013 44.0848 28.2371 44.0973 28.3733 44.0928C28.8193 44.0639 29.24 43.8736 29.5562 43.5574C29.8723 43.2412 30.0625 42.8208 30.0913 42.3746C30.0964 41.9328 29.9197 41.5057 29.6006 41.1964L21.4761 33.0473L29.6006 24.8982C29.6814 24.8196 29.7537 24.733 29.8164 24.6398C29.8755 24.5518 29.9258 24.4579 29.9668 24.3595C30.0513 24.157 30.0938 23.9394 30.0913 23.72C30.0625 23.2738 29.8723 22.8534 29.5562 22.5372C29.24 22.221 28.8193 22.0307 28.3733 22.0019C28.1458 21.9943 27.9194 22.0341 27.708 22.1186C27.4968 22.2031 27.3054 22.3305 27.146 22.4928L19.0459 30.5682Z" fill="url(#paint3_linear)"/>
<defs>
<linearGradient id="paint0_linear" x1="24.3618" y1="0" x2="24.3618" y2="55.9265" gradientUnits="userSpaceOnUse">
<stop stop-color="#F44336"/>
<stop offset="1" stop-color="#A21515"/>
</linearGradient>
<linearGradient id="paint1_linear" x1="24.3618" y1="0" x2="24.3618" y2="55.9265" gradientUnits="userSpaceOnUse">
<stop stop-color="#F44336"/>
<stop offset="1" stop-color="#A21515"/>
</linearGradient>
<linearGradient id="paint2_linear" x1="24.3618" y1="0" x2="24.3618" y2="55.9265" gradientUnits="userSpaceOnUse">
<stop stop-color="#F44336"/>
<stop offset="1" stop-color="#A21515"/>
</linearGradient>
<linearGradient id="paint3_linear" x1="24.3618" y1="0" x2="24.3618" y2="55.9265" gradientUnits="userSpaceOnUse">
<stop stop-color="#F44336"/>
<stop offset="1" stop-color="#A21515"/>
</linearGradient>
</defs>
</svg>
