<svg width="1440" height="346" viewBox="0 0 1440 346" fill="none" xmlns="http://www.w3.org/2000/svg">
<path d="M-8.9933 41.6519L-12.5 40.1092V43.9402V346V348.5H-10H71.74H72.2127H72.6874H73.1639H73.6423H74.1226H74.6048H75.0889H75.5748H76.0626H76.5523H77.0438H77.5372H78.0324H78.5295H79.0285H79.5292H80.0318H80.5363H81.0426H81.5507H82.0606H82.5724H83.0859H83.6013H84.1185H84.6375H85.1583H85.6809H86.2053H86.7314H87.2594H87.7891H88.3207H88.854H89.389H89.9258H90.4644H91.0048H91.5469H92.0908H92.6364H93.1837H93.7328H94.2837H94.8363H95.3905H95.9466H96.5043H97.0638H97.625H98.1878H98.7524H99.3187H99.8867H100.456H101.028H101.601H102.176H102.752H103.33H103.91H104.491H105.075H105.659H106.246H106.834H107.424H108.015H108.608H109.203H109.799H110.397H110.997H111.598H112.201H112.805H113.411H114.019H114.628H115.239H115.851H116.465H117.081H117.698H118.317H118.937H119.559H120.183H120.808H121.435H122.063H122.693H123.324H123.957H124.591H125.227H125.865H126.504H127.144H127.787H128.43H129.075H129.722H130.37H131.02H131.671H132.324H132.978H133.633H134.291H134.949H135.609H136.271H136.934H137.599H138.265H138.932H139.601H140.271H140.943H141.617H142.291H142.967H143.645H144.324H145.005H145.686H146.37H147.054H147.741H148.428H149.117H149.807H150.499H151.192H151.887H152.583H153.28H153.979H154.679H155.38H156.083H156.787H157.493H158.2H158.908H159.617H160.328H161.041H161.754H162.469H163.186H163.903H164.622H165.342H166.064H166.787H167.511H168.236H168.963H169.691H170.421H171.151H171.883H172.617H173.351H174.087H174.824H175.562H176.302H177.043H177.785H178.528H179.273H180.019H180.766H181.514H182.264H183.014H183.766H184.52H185.274H186.03H186.786H187.545H188.304H189.064H189.826H190.589H191.353H192.118H192.885H193.652H194.421H195.191H195.962H196.734H197.508H198.282H199.058H199.835H200.613H201.392H202.172H202.954H203.736H204.52H205.305H206.091H206.878H207.666H208.455H209.245H210.037H210.829H211.623H212.417H213.213H214.01H214.808H215.607H216.407H217.208H218.01H218.814H219.618H220.423H221.23H222.037H222.846H223.655H224.466H225.277H226.09H226.903H227.718H228.534H229.35H230.168H230.987H231.806H232.627H233.448H234.271H235.095H235.919H236.745H237.571H238.399H239.227H240.056H240.887H241.718H242.55H243.383H244.218H245.053H245.889H246.725H247.563H248.402H249.242H250.082H250.924H251.766H252.609H253.454H254.299H255.145H255.992H256.839H257.688H258.537H259.388H260.239H261.091H261.944H262.798H263.653H264.508H265.365H266.222H267.08H267.939H268.798H269.659H270.52H271.382H272.245H273.109H273.974H274.839H275.706H276.573H277.44H278.309H279.178H280.048H280.919H281.791H282.664H283.537H284.411H285.286H286.161H287.037H287.914H288.792H289.671H290.55H291.43H292.311H293.192H294.074H294.957H295.841H296.725H297.61H298.496H299.382H300.269H301.157H302.045H302.934H303.824H304.715H305.606H306.498H307.39H308.284H309.177H310.072H310.967H311.863H312.759H313.656H314.554H315.452H316.351H317.251H318.151H319.052H319.953H320.855H321.758H322.661H323.565H324.469H325.374H326.28H327.186H328.093H329H329.908H330.816H331.726H332.635H333.545H334.456H335.367H336.279H337.191H338.104H339.018H339.931H340.846H341.761H342.676H343.592H344.509H345.426H346.343H347.262H348.18H349.099H350.019H350.938H351.859H352.78H353.701H354.623H355.546H356.468H357.392H358.315H359.239H360.164H361.089H362.015H362.941H363.867H364.794H365.721H366.649H367.577H368.505H369.434H370.363H371.293H372.223H373.153H374.084H375.015H375.947H376.879H377.811H378.744H379.677H380.611H381.545H382.479H383.413H384.348H385.284H386.219H387.155H388.091H389.028H389.965H390.902H391.84H392.777H393.716H394.654H395.593H396.532H397.471H398.411H399.351H400.291H401.232H402.172H403.113H404.055H404.996H405.938H406.88H407.823H408.765H409.708H410.651H411.595H412.538H413.482H414.426H415.371H416.315H417.26H418.205H419.15H420.095H421.041H421.986H422.932H423.879H424.825H425.771H426.718H427.665H428.612H429.559H430.506H431.454H432.402H433.349H434.297H435.246H436.194H437.142H438.091H439.039H439.988H440.937H441.886H442.835H443.784H444.734H445.683H446.633H447.583H448.532H449.482H450.432H451.382H452.332H453.282H454.233H455.183H456.133H457.084H458.034H458.985H459.935H460.886H461.836H462.787H463.738H464.689H465.639H466.59H467.541H468.492H469.443H470.394H471.344H472.295H473.246H474.197H475.148H476.098H477.049H478H478.951H479.902H480.852H481.803H482.754H483.705H484.656H485.607H486.558H487.509H488.46H489.411H490.362H491.313H492.264H493.215H494.167H495.118H496.069H497.02H497.972H498.923H499.874H500.826H501.777H502.728H503.68H504.631H505.583H506.534H507.486H508.438H509.389H510.341H511.292H512.244H513.196H514.147H515.099H516.051H517.003H517.954H518.906H519.858H520.81H521.762H522.714H523.666H524.618H525.57H526.522H527.474H528.426H529.378H530.33H531.282H532.234H533.186H534.139H535.091H536.043H536.995H537.948H538.9H539.852H540.805H541.757H542.709H543.662H544.614H545.567H546.519H547.472H548.424H549.377H550.329H551.282H552.234H553.187H554.139H555.092H556.045H556.997H557.95H558.903H559.856H560.808H561.761H562.714H563.667H564.62H565.572H566.525H567.478H568.431H569.384H570.337H571.29H572.243H573.196H574.149H575.102H576.055H577.008H577.961H578.914H579.867H580.82H581.773H582.726H583.68H584.633H585.586H586.539H587.492H588.446H589.399H590.352H591.305H592.259H593.212H594.165H595.119H596.072H597.025H597.979H598.932H599.886H600.839H601.793H602.746H603.699H604.653H605.606H606.56H607.513H608.467H609.421H610.374H611.328H612.281H613.235H614.188H615.142H616.096H617.049H618.003H618.957H619.91H620.864H621.818H622.772H623.725H624.679H625.633H626.587H627.54H628.494H629.448H630.402H631.356H632.309H633.263H634.217H635.171H636.125H637.079H638.033H638.986H639.94H640.894H641.848H642.802H643.756H644.71H645.664H646.618H647.572H648.526H649.48H650.434H651.388H652.342H653.296H654.25H655.204H656.158H657.112H658.066H659.02H659.974H660.929H661.883H662.837H663.791H664.745H665.699H666.653H667.607H668.562H669.516H670.47H671.424H672.378H673.332H674.286H675.241H676.195H677.149H678.103H679.057H680.012H680.966H681.92H682.874H683.829H684.783H685.737H686.691H687.646H688.6H689.554H690.508H691.463H692.417H693.371H694.325H695.28H696.234H697.188H698.142H699.097H700.051H701.005H701.96H702.914H703.868H704.822H705.777H706.731H707.685H708.64H709.594H710.548H711.503H712.457H713.411H714.366H715.32H716.274H717.228H718.183H719.137H720.091H721.046H722H722.954H723.909H724.863H725.817H726.772H727.726H728.68H729.635H730.589H731.543H732.497H733.452H734.406H735.36H736.315H737.269H738.223H739.178H740.132H741.086H742.041H742.995H743.949H744.903H745.858H746.812H747.766H748.721H749.675H750.629H751.583H752.538H753.492H754.446H755.4H756.355H757.309H758.263H759.217H760.172H761.126H762.08H763.034H763.988H764.943H765.897H766.851H767.805H768.759H769.714H770.668H771.622H772.576H773.53H774.484H775.439H776.393H777.347H778.301H779.255H780.209H781.163H782.117H783.072H784.026H784.98H785.934H786.888H787.842H788.796H789.75H790.704H791.658H792.612H793.566H794.52H795.474H796.428H797.382H798.336H799.29H800.244H801.198H802.152H803.106H804.06H805.014H805.967H806.921H807.875H808.829H809.783H810.737H811.691H812.645H813.598H814.552H815.506H816.46H817.414H818.367H819.321H820.275H821.229H822.182H823.136H824.09H825.043H825.997H826.951H827.904H828.858H829.812H830.765H831.719H832.672H833.626H834.58H835.533H836.487H837.44H838.394H839.347H840.301H841.254H842.208H843.161H844.114H845.068H846.021H846.975H847.928H848.881H849.835H850.788H851.741H852.695H853.648H854.601H855.554H856.508H857.461H858.414H859.367H860.32H861.274H862.227H863.18H864.133H865.086H866.039H866.992H867.945H868.898H869.851H870.804H871.757H872.71H873.663H874.616H875.569H876.522H877.475H878.428H879.381H880.333H881.286H882.239H883.192H884.145H885.097H886.05H887.003H887.955H888.908H889.861H890.813H891.766H892.718H893.671H894.624H895.576H896.529H897.481H898.433H899.386H900.338H901.291H902.243H903.195H904.148H905.1H906.052H907.005H907.957H908.909H909.861H910.814H911.766H912.718H913.67H914.622H915.574H916.526H917.478H918.43H919.382H920.334H921.286H922.238H923.19H924.142H925.094H926.046H926.997H927.949H928.901H929.853H930.804H931.756H932.708H933.659H934.611H935.563H936.514H937.466H938.417H939.369H940.32H941.272H942.223H943.174H944.126H945.077H946.028H946.98H947.931H948.882H949.833H950.785H951.736H952.687H953.638H954.589H955.54H956.491H957.442H958.393H959.344H960.295H961.246H962.197H963.148H964.099H965.049H966H966.951H967.902H968.852H969.803H970.754H971.705H972.656H973.607H974.557H975.508H976.459H977.41H978.361H979.311H980.262H981.213H982.164H983.114H984.065H985.015H985.966H986.916H987.867H988.817H989.768H990.718H991.668H992.618H993.568H994.518H995.468H996.418H997.367H998.317H999.266H1000.22H1001.16H1002.11H1003.06H1004.01H1004.96H1005.91H1006.86H1007.81H1008.75H1009.7H1010.65H1011.6H1012.55H1013.49H1014.44H1015.39H1016.34H1017.28H1018.23H1019.18H1020.12H1021.07H1022.01H1022.96H1023.9H1024.85H1025.8H1026.74H1027.69H1028.63H1029.57H1030.52H1031.46H1032.41H1033.35H1034.29H1035.23H1036.18H1037.12H1038.06H1039H1039.95H1040.89H1041.83H1042.77H1043.71H1044.65H1045.59H1046.53H1047.47H1048.41H1049.35H1050.28H1051.22H1052.16H1053.1H1054.04H1054.97H1055.91H1056.85H1057.78H1058.72H1059.65H1060.59H1061.52H1062.46H1063.39H1064.32H1065.26H1066.19H1067.12H1068.05H1068.98H1069.92H1070.85H1071.78H1072.71H1073.64H1074.57H1075.49H1076.42H1077.35H1078.28H1079.21H1080.13H1081.06H1081.99H1082.91H1083.84H1084.76H1085.68H1086.61H1087.53H1088.45H1089.38H1090.3H1091.22H1092.14H1093.06H1093.98H1094.9H1095.82H1096.74H1097.66H1098.57H1099.49H1100.41H1101.32H1102.24H1103.15H1104.07H1104.98H1105.9H1106.81H1107.72H1108.63H1109.54H1110.45H1111.36H1112.27H1113.18H1114.09H1115H1115.91H1116.81H1117.72H1118.63H1119.53H1120.44H1121.34H1122.24H1123.14H1124.05H1124.95H1125.85H1126.75H1127.65H1128.55H1129.45H1130.34H1131.24H1132.14H1133.03H1133.93H1134.82H1135.72H1136.61H1137.5H1138.39H1139.29H1140.18H1141.07H1141.95H1142.84H1143.73H1144.62H1145.5H1146.39H1147.28H1148.16H1149.04H1149.93H1150.81H1151.69H1152.57H1153.45H1154.33H1155.21H1156.09H1156.96H1157.84H1158.71H1159.59H1160.46H1161.34H1162.21H1163.08H1163.95H1164.82H1165.69H1166.56H1167.43H1168.29H1169.16H1170.03H1170.89H1171.75H1172.62H1173.48H1174.34H1175.2H1176.06H1176.92H1177.78H1178.64H1179.49H1180.35H1181.2H1182.06H1182.91H1183.76H1184.61H1185.46H1186.31H1187.16H1188.01H1188.86H1189.7H1190.55H1191.39H1192.23H1193.08H1193.92H1194.76H1195.6H1196.44H1197.27H1198.11H1198.95H1199.78H1200.62H1201.45H1202.28H1203.11H1203.94H1204.77H1205.6H1206.43H1207.26H1208.08H1208.91H1209.73H1210.55H1211.37H1212.19H1213.01H1213.83H1214.65H1215.47H1216.28H1217.1H1217.91H1218.72H1219.53H1220.34H1221.15H1221.96H1222.77H1223.58H1224.38H1225.19H1225.99H1226.79H1227.59H1228.39H1229.19H1229.99H1230.79H1231.58H1232.38H1233.17H1233.96H1234.75H1235.55H1236.33H1237.12H1237.91H1238.7H1239.48H1240.26H1241.05H1241.83H1242.61H1243.39H1244.17H1244.94H1245.72H1246.49H1247.27H1248.04H1248.81H1249.58H1250.35H1251.12H1251.88H1252.65H1253.41H1254.17H1254.94H1255.7H1256.46H1257.21H1257.97H1258.73H1259.48H1260.23H1260.99H1261.74H1262.49H1263.23H1263.98H1264.73H1265.47H1266.22H1266.96H1267.7H1268.44H1269.18H1269.91H1270.65H1271.38H1272.12H1272.85H1273.58H1274.31H1275.04H1275.76H1276.49H1277.21H1277.94H1278.66H1279.38H1280.1H1280.81H1281.53H1282.25H1282.96H1283.67H1284.38H1285.09H1285.8H1286.51H1287.21H1287.92H1288.62H1289.32H1290.02H1290.72H1291.42H1292.11H1292.81H1293.5H1294.19H1294.88H1295.57H1296.26H1296.95H1297.63H1298.31H1299H1299.68H1300.36H1301.03H1301.71H1302.38H1303.06H1303.73H1304.4H1305.07H1305.74H1306.4H1307.07H1307.73H1308.39H1309.05H1309.71H1310.37H1311.02H1311.68H1312.33H1312.98H1313.63H1314.28H1314.92H1315.57H1316.21H1316.86H1317.5H1318.14H1318.77H1319.41H1320.04H1320.68H1321.31H1321.94H1322.57H1323.19H1323.82H1324.44H1325.06H1325.68H1326.3H1326.92H1327.53H1328.15H1328.76H1329.37H1329.98H1330.59H1331.2H1331.8H1332.4H1333H1333.6H1334.2H1334.8H1335.39H1335.99H1336.58H1337.17H1337.75H1338.34H1338.93H1339.51H1340.09H1340.67H1341.25H1341.82H1342.4H1342.97H1343.54H1344.11H1344.68H1345.25H1345.81H1346.38H1346.94H1347.5H1348.05H1348.61H1349.16H1349.72H1350.27H1350.82H1351.36H1351.91H1352.45H1353H1353.54H1354.07H1354.61H1355.15H1355.68H1356.21H1356.74H1357.27H1357.79H1358.32H1358.84H1359.36H1359.88H1360.4H1360.91H1361.43H1361.94H1362.45H1362.96H1363.46H1363.97H1364.47H1364.97H1365.47H1365.97H1366.46H1366.96H1367.45H1367.94H1368.43H1368.91H1369.4H1369.88H1370.36H1370.84H1371.31H1371.79H1372.26H1454H1456.5V346V43.9402V41.8417L1454.43 41.478L1372.7 27.0954C1372.7 27.0951 1372.7 27.0948 1372.7 27.0946C1292.19 12.7129 1128.26 -16.1551 965.459 19.9237C922.567 29.4293 879.631 39.7847 836.681 50.1432C716.916 79.0279 597.051 107.937 477.779 118.51C396.813 125.687 315.54 124.404 244.482 116.843C173.38 109.277 112.676 95.4432 72.7595 77.617L72.7467 77.6114L-8.9933 41.6519Z" fill="url(#paint0_linear)" stroke="url(#paint1_linear)" stroke-width="5"/>
<defs>
<linearGradient id="paint0_linear" x1="688.958" y1="346" x2="688.958" y2="5" gradientUnits="userSpaceOnUse">
<stop stop-color="#203A43"/>
<stop offset="1" stop-color="#0F2027"/>
</linearGradient>
<linearGradient id="paint1_linear" x1="316" y1="123.5" x2="1184.5" y2="5.00005" gradientUnits="userSpaceOnUse">
<stop stop-color="#56CCF2"/>
<stop offset="1" stop-color="#2FEDBF"/>
</linearGradient>
</defs>
</svg>
