<svg width="40" height="38" viewBox="0 0 40 38" fill="none" xmlns="http://www.w3.org/2000/svg">
<path d="M1.25 8.5H32.75" stroke="black" stroke-width="2" stroke-linecap="round" stroke-linejoin="round"/>
<path d="M24 15.5C24 17.3565 23.2625 19.137 21.9497 20.4497C20.637 21.7625 18.8565 22.5 17 22.5C15.1435 22.5 13.363 21.7625 12.0503 20.4497C10.7375 19.137 10 17.3565 10 15.5" stroke="black" stroke-width="2" stroke-linecap="round" stroke-linejoin="round"/>
<path d="M39 20L28 31L23 26" stroke="black" stroke-width="2" stroke-linecap="round" stroke-linejoin="round"/>
<path fill-rule="evenodd" clip-rule="evenodd" d="M6.5 0.5C6.18524 0.5 5.88885 0.648194 5.7 0.9L0.45 7.9C0.320178 8.0731 0.25 8.28363 0.25 8.5V33C0.25 34.1935 0.724106 35.3381 1.56802 36.182C2.41193 37.0259 3.55653 37.5 4.75 37.5H29.25C30.4435 37.5 31.5881 37.0259 32.432 36.182C33.2759 35.3381 33.75 34.1935 33.75 33V29.4926L31.75 31.4926V33C31.75 33.663 31.4866 34.2989 31.0178 34.7678C30.5489 35.2366 29.913 35.5 29.25 35.5H4.75C4.08696 35.5 3.45107 35.2366 2.98223 34.7678C2.51339 34.2989 2.25 33.663 2.25 33V8.83333L7 2.5H27L31.75 8.83333V23.0074L33.75 21.0074V8.5C33.75 8.28363 33.6798 8.0731 33.55 7.9L28.3 0.9C28.1111 0.648194 27.8148 0.5 27.5 0.5H6.5Z" fill="black"/>
</svg>
