<svg width="116" height="201" viewBox="0 0 116 201" fill="none" xmlns="http://www.w3.org/2000/svg">
<path d="M88.4561 17.8667C92.703 17.8667 96.1247 21.3138 96.1247 25.5377V174.418C96.1247 178.667 92.6787 182.089 88.4561 182.089H28.0293C23.7825 182.089 20.3607 178.642 20.3607 174.418V25.5377C20.3607 21.2895 23.8067 17.8667 28.0293 17.8667H35.0184C36.4988 17.8667 37.0327 17.8667 37.1297 19.7359C37.2268 21.6779 38.5615 22.8674 40.3573 23.4257C40.964 23.6199 41.6435 23.6442 42.2988 23.6442H43.6092H72.9004H74.2109C74.8661 23.6442 75.5456 23.6199 76.1523 23.4257C77.9481 22.8674 79.3071 21.6779 79.3799 19.7359C79.477 17.8667 80.0109 17.8667 81.4912 17.8667H88.4561Z" stroke="#828282" stroke-miterlimit="10"/>
<path d="M100.833 175.122C100.833 182.114 95.1782 187.77 88.1891 187.77H27.8109C20.8218 187.77 15.1674 182.114 15.1674 175.122V26.1203C15.1674 19.129 20.8218 13.4728 27.8109 13.4728H88.1891C95.1782 13.4728 100.833 19.129 100.833 26.1203V175.122Z" stroke="#828282" stroke-miterlimit="10"/>
<path d="M98.8912 175.001C98.8912 180.973 94.0376 185.828 88.0678 185.828H27.6895C21.7197 185.828 16.8661 180.973 16.8661 175.001V25.9989C16.8661 20.0272 21.7197 15.1721 27.6895 15.1721H88.0678C94.0376 15.1721 98.8912 20.0272 98.8912 25.9989V175.001Z" stroke="#828282" stroke-miterlimit="10"/>
<path d="M15.2159 36.1946H14.2695V42.7975H15.2159" stroke="#828282" stroke-miterlimit="10"/>
<path d="M100.784 73.1174H101.731V52.8474H100.784" stroke="#828282" stroke-miterlimit="10"/>
<path d="M15.2159 48.8906H14.2695V61.2225H15.2159" stroke="#828282" stroke-miterlimit="10"/>
<path d="M15.2159 64.7424H14.2695V77.0743H15.2159" stroke="#828282" stroke-miterlimit="10"/>
<path d="M63.072 20.0272H53.6076C53.195 20.0272 52.8795 19.7844 52.8795 19.4203C52.8795 19.0562 53.195 18.8134 53.6076 18.8134H63.072C63.4845 18.8134 63.8 19.0562 63.8 19.4203C63.8 19.7844 63.4603 20.0272 63.072 20.0272Z" stroke="#828282" stroke-miterlimit="10"/>
<path d="M66.9791 20.2214C67.5688 20.2214 68.0469 19.7432 68.0469 19.1533C68.0469 18.5634 67.5688 18.0851 66.9791 18.0851C66.3894 18.0851 65.9113 18.5634 65.9113 19.1533C65.9113 19.7432 66.3894 20.2214 66.9791 20.2214Z" stroke="#828282" stroke-miterlimit="10"/>
</svg>
