<svg width="66" height="40" viewBox="0 0 66 40" fill="none" xmlns="http://www.w3.org/2000/svg">
<path d="M3.07104 6.30936e-05C1.3755 6.30936e-05 0 1.30506 0 2.91523V36.4292C0 38.039 1.3757 39.3443 3.07104 39.3443H62.929C64.6245 39.3443 66 38.0393 66 36.4291V2.91517C66 1.30525 64.6243 0 62.929 0H3.07098L3.07104 6.30936e-05ZM21.6418 4.73603C25.4091 4.73603 28.8691 5.98019 31.5851 8.05842C29.3 9.99925 27.5956 12.5492 26.7547 15.4394H28.0727C28.8488 13.0551 30.2588 10.9322 32.1172 9.24877C33.9756 10.9322 35.3855 13.0551 36.1618 15.4394H37.5004C36.6478 12.5644 34.941 10.0297 32.6576 8.10152C35.3788 5.99692 38.8524 4.73596 42.636 4.73596C51.3672 4.73596 58.445 11.4553 58.445 19.7446C58.445 28.0339 51.3672 34.7532 42.636 34.7532C38.7895 34.7532 35.2624 33.45 32.5215 31.282C34.9734 29.2571 36.781 26.5427 37.6076 23.4547H36.3184C35.5845 26.0465 34.1071 28.3517 32.1171 30.1543C30.1273 28.3517 28.652 26.0465 27.9179 23.4547H26.6907C27.5222 26.4979 29.3061 29.1744 31.7212 31.1802C28.9852 33.3213 25.472 34.6083 21.6417 34.6083C12.9106 34.6083 5.83274 27.9213 5.83274 19.6722C5.83274 11.423 12.9106 4.73603 21.6418 4.73603ZM41.45 15.2867C39.5505 15.2867 37.7025 16.8631 37.7025 19.8229C37.7025 21.7856 38.7006 23.0807 40.6642 23.0807C41.2194 23.0809 42.1039 22.8654 42.1039 22.8654L42.3967 21.1503C42.3967 21.1503 41.5895 21.5379 41.0355 21.5379C39.8682 21.5379 39.3999 20.6858 39.3999 19.7701C39.3999 17.9123 40.4042 16.8901 41.5222 16.8901C42.3606 16.8901 43.034 17.3404 43.034 17.3404L43.3022 15.6723C43.3022 15.6723 42.3053 15.2867 41.4499 15.2867H41.45ZM57.4199 15.4316L55.7679 15.4355L55.4131 17.499C55.4131 17.499 54.7921 16.6982 53.8209 16.6982C52.3108 16.6982 51.053 18.4011 51.053 20.3594C51.053 21.6235 51.7224 22.8634 53.0949 22.8634C54.0821 22.8634 54.6294 22.2193 54.6294 22.2193L54.5572 22.7694H56.1618L57.4199 15.4316ZM10.1021 15.4531L8.78624 22.8085H10.3723L11.3747 17.2621L11.5232 22.8085H12.6575L14.7737 17.2621L13.8352 22.8085H15.5203L16.8197 15.4531H14.2127L12.5895 19.9658L12.5049 15.4531H10.1021L10.1021 15.4531ZM26.6722 15.9308C26.6364 15.9649 25.7132 21.0184 25.7132 21.6339C25.7132 22.5452 26.2513 22.9522 27.0084 22.9456C27.5509 22.9412 27.9711 22.8119 28.1655 22.7577C28.1858 22.7525 28.2253 22.742 28.2253 22.742L28.4295 21.4264C28.3185 21.4264 28.1549 21.4714 28.0108 21.4714C27.4455 21.4714 27.3828 21.1859 27.4188 20.9741L27.8747 18.29H28.7347L28.943 16.8352H28.1325L28.2975 15.9308H26.6722V15.9308ZM45.8432 16.6709C44.7361 16.6709 43.8879 17.0174 43.8879 17.0174L43.6528 18.3683C43.6528 18.3683 44.3533 18.0922 45.4121 18.0922C46.0132 18.0922 46.4536 18.1575 46.4536 18.6325C46.4536 18.9211 46.4 19.0281 46.4 19.0281C46.4 19.0281 45.9247 18.9889 45.705 18.9889C44.3089 18.9889 42.8422 19.5697 42.8422 21.3167C42.8422 22.6933 43.8051 23.0083 44.4015 23.0083C45.5405 23.0083 46.0317 22.29 46.0577 22.2878L46.004 22.8869H47.4251L48.0604 18.5641C48.0606 16.7298 46.4147 16.6708 45.8432 16.6708V16.6709ZM19.1853 16.6787C18.0743 16.6787 17.2218 17.0252 17.2218 17.0252L16.9867 18.3761C16.9867 18.3761 17.6896 18.1 18.7522 18.1C19.3556 18.1 19.7979 18.1656 19.7979 18.6404C19.7979 18.9288 19.7443 19.0359 19.7443 19.0359C19.7443 19.0359 19.2676 18.9967 19.0472 18.9967C17.6458 18.9967 16.1741 19.5766 16.1741 21.3226C16.1741 22.6984 17.1389 23.0142 17.7375 23.0142C18.8807 23.0142 19.3736 22.2958 19.3999 22.2937L19.3462 22.8927H20.7735L21.4108 18.5719C21.4108 16.7387 19.759 16.6786 19.1853 16.6786V16.6787ZM24.2261 16.6787C23.033 16.6787 21.8212 17.1358 21.8212 18.6972C21.8212 20.4663 23.8404 20.2876 23.8404 21.0328C23.8404 21.5302 23.2769 21.5713 22.8422 21.5713C22.0898 21.5713 21.4132 21.3245 21.4108 21.3363L21.1942 22.6872C21.2332 22.6987 21.6521 22.8771 23.0051 22.8771C23.3684 22.8771 25.445 22.9647 25.445 20.9114C25.445 18.9919 23.5228 19.3724 23.5228 18.6012C23.5228 18.2173 23.8349 18.0961 24.4076 18.0961C24.635 18.0961 25.5111 18.1647 25.5111 18.1647L25.7132 16.8C25.7132 16.8002 25.1479 16.6787 24.2261 16.6787H24.2261ZM31.6841 16.6787C30.0261 16.679 28.7987 18.3713 28.7987 20.283C28.7987 22.4895 30.3366 23.0142 31.647 23.0142C32.8565 23.0142 33.3898 22.7577 33.3898 22.7577L33.6785 21.2521C33.6785 21.2521 32.7584 21.6359 31.9275 21.6359C30.157 21.6359 30.4672 20.3848 30.4672 20.3848H33.8188C33.8188 20.3848 34.0354 19.3738 34.0354 18.9615C34.0354 17.9327 33.4945 16.6787 31.6841 16.6787H31.6841ZM37.6881 16.7433C36.9412 16.7433 36.3866 17.6967 36.3866 17.6967L36.5351 16.8216H34.9841L33.9426 22.8634H35.6565C36.1419 20.2834 36.2305 18.1884 37.389 18.5719C37.5917 17.5733 37.7885 17.1875 38.0098 16.7648C38.0098 16.7648 37.9058 16.7433 37.688 16.7433H37.6881ZM51.5748 16.7433C50.8279 16.7433 50.2734 17.6967 50.2734 17.6967L50.4219 16.8216H48.8709L47.8293 22.8634H49.5412C50.0268 20.2834 50.1177 18.1884 51.2757 18.5719C51.4789 17.5733 51.6754 17.1875 51.8966 16.7648C51.8966 16.7648 51.7926 16.7433 51.5749 16.7433H51.5748ZM31.6758 18.0413C32.6174 18.0413 32.4452 19.0502 32.4452 19.1318H30.591C30.591 19.0277 30.7664 18.0413 31.6759 18.0413H31.6758ZM54.0808 18.1588C54.6801 18.1586 54.9883 18.5429 54.9883 19.447C54.9883 20.2673 54.5524 21.3637 53.6497 21.3637C53.0505 21.3637 52.769 20.894 52.769 20.1577C52.769 18.9537 53.3493 18.1588 54.0807 18.1588H54.0808ZM45.8452 20.2145C46.0897 20.2148 46.1402 20.2373 46.1814 20.2478C46.1755 20.2469 46.1743 20.2479 46.1979 20.2517C46.2289 20.5208 46.0266 21.7827 45.049 21.7827C44.545 21.7827 44.4159 21.4022 44.4159 21.1777C44.4159 20.7399 44.656 20.2145 45.8452 20.2145ZM19.1874 20.2204C19.4651 20.2207 19.4954 20.2501 19.5422 20.2576C19.5732 20.5265 19.3702 21.7866 18.3892 21.7866C17.8832 21.7866 17.7519 21.4079 17.7519 21.1836C17.7519 20.746 17.9935 20.2204 19.1874 20.2204Z" fill="#F2F2F2"/>
</svg>
