<svg width="50" height="44" viewBox="0 0 50 44" fill="none" xmlns="http://www.w3.org/2000/svg">
<path d="M16.1719 22.1891C16.1719 23.2375 15.3299 24.0367 14.2622 24.0367C13.4635 24.0367 12.8733 23.5898 12.8733 22.7477C12.8733 21.6992 13.6979 20.857 14.7569 20.857C15.5642 20.857 16.1719 21.3469 16.1719 22.1891ZM6.98785 18.0211H6.57986C6.44965 18.0211 6.31944 18.107 6.30208 18.2531L5.92882 20.5477L6.64062 20.5219C7.59549 20.5219 8.33333 20.393 8.50694 19.3016C8.7066 18.15 7.96875 18.0211 6.98785 18.0211V18.0211ZM31.6406 18.0211H31.25C31.0937 18.0211 30.9896 18.107 30.9722 18.2531L30.6076 20.5477L31.3021 20.5219C32.4306 20.5219 33.2118 20.2641 33.2118 18.975C33.2031 18.0641 32.3785 18.0211 31.6406 18.0211V18.0211ZM50 6.875V37.125C50 39.4023 48.1337 41.25 45.8333 41.25H4.16667C1.86632 41.25 0 39.4023 0 37.125V6.875C0 4.59766 1.86632 2.75 4.16667 2.75H45.8333C48.1337 2.75 50 4.59766 50 6.875ZM11.1372 18.5109C11.1372 16.7062 9.7309 16.1047 8.125 16.1047H4.65278C4.43576 16.1047 4.21875 16.2766 4.20139 16.5086L2.77778 25.2828C2.75174 25.4547 2.88194 25.6266 3.05556 25.6266H4.70486C4.93924 25.6266 5.15625 25.3773 5.18229 25.1367L5.57292 22.8508C5.65972 22.232 6.71875 22.4469 7.13542 22.4469C9.61805 22.4469 11.1372 20.9859 11.1372 18.5109V18.5109ZM18.4462 19.2672H16.7969C16.467 19.2672 16.4497 19.7398 16.4323 19.9719C15.9288 19.2414 15.1997 19.1125 14.375 19.1125C12.2483 19.1125 10.625 20.9602 10.625 22.9969C10.625 24.6727 11.684 25.7641 13.3767 25.7641C14.158 25.7641 15.1302 25.343 15.6771 24.7414C15.6337 24.8703 15.5903 25.1453 15.5903 25.2742C15.5903 25.4719 15.6771 25.618 15.8681 25.618H17.3611C17.5955 25.618 17.7951 25.3687 17.8385 25.1281L18.724 19.6023C18.75 19.4391 18.6198 19.2672 18.4462 19.2672ZM21.9618 27.6805L27.4913 19.7227C27.5347 19.6797 27.5347 19.6367 27.5347 19.5766C27.5347 19.4305 27.4045 19.2758 27.2569 19.2758H25.5903C25.4427 19.2758 25.2865 19.3617 25.1997 19.4906L22.8993 22.8422L21.9444 19.6195C21.875 19.4305 21.684 19.2758 21.467 19.2758H19.8437C19.6962 19.2758 19.566 19.4305 19.566 19.5766C19.566 19.6797 21.2587 24.4578 21.4062 24.9133C21.1719 25.2398 19.6267 27.3711 19.6267 27.6289C19.6267 27.7836 19.7569 27.9039 19.9045 27.9039H21.5712C21.7274 27.8953 21.875 27.8094 21.9618 27.6805V27.6805ZM35.7899 18.5109C35.7899 16.7062 34.3837 16.1047 32.7778 16.1047H29.3316C29.0972 16.1047 28.8802 16.2766 28.8542 16.5086L27.4479 25.2742C27.4306 25.4461 27.5608 25.618 27.7257 25.618H29.5052C29.6788 25.618 29.809 25.4891 29.8524 25.343L30.2431 22.8508C30.3299 22.232 31.3889 22.4469 31.8056 22.4469C34.2708 22.4469 35.7899 20.9859 35.7899 18.5109ZM43.099 19.2672H41.4497C41.1198 19.2672 41.1024 19.7398 41.0764 19.9719C40.599 19.2414 39.8611 19.1125 39.0191 19.1125C36.8924 19.1125 35.2691 20.9602 35.2691 22.9969C35.2691 24.6727 36.3281 25.7641 38.0208 25.7641C38.8281 25.7641 39.8003 25.343 40.3212 24.7414C40.2951 24.8703 40.2344 25.1453 40.2344 25.2742C40.2344 25.4719 40.3212 25.618 40.5122 25.618H42.0139C42.2483 25.618 42.4479 25.3687 42.4913 25.1281L43.3767 19.6023C43.4028 19.4391 43.2726 19.2672 43.099 19.2672V19.2672ZM47.2222 16.4055C47.2222 16.2336 47.092 16.1047 46.9444 16.1047H45.3385C45.2083 16.1047 45.0781 16.2078 45.0608 16.3367L43.6545 25.2742L43.6285 25.3172C43.6285 25.4719 43.7587 25.618 43.9323 25.618H45.3646C45.5816 25.618 45.7986 25.3687 45.816 25.1281L47.2222 16.4312V16.4055V16.4055ZM39.4097 20.857C38.3507 20.857 37.526 21.6906 37.526 22.7477C37.526 23.5813 38.1337 24.0367 38.9323 24.0367C39.974 24.0367 40.816 23.2461 40.816 22.1891C40.8247 21.3469 40.217 20.857 39.4097 20.857Z" fill="#F2F2F2"/>
</svg>
