<svg width="28" height="26" viewBox="0 0 28 26" fill="none" xmlns="http://www.w3.org/2000/svg">
<path d="M26.2363 25.3867C25.7533 25.3867 25.3431 25.2135 25.0059 24.8672C24.6686 24.5208 24.5 24.1107 24.5 23.6367C24.5 22.7435 24.0352 21.8958 23.1055 21.0938C22.1758 20.2917 20.8952 19.64 19.2637 19.1387C17.6322 18.6374 15.8776 18.3867 14 18.3867C12.1406 18.3867 10.3906 18.6465 8.75 19.166C7.10938 19.6855 5.82422 20.3464 4.89453 21.1484C3.96484 21.9505 3.5 22.7799 3.5 23.6367C3.5 24.1107 3.32682 24.5208 2.98047 24.8672C2.63411 25.2135 2.2194 25.3867 1.73633 25.3867C1.25326 25.3867 0.843099 25.2135 0.505859 24.8672C0.16862 24.5208 0 24.1107 0 23.6367C0 21.9232 0.628906 20.3965 1.88672 19.0566C3.14453 17.7168 4.83529 16.6868 6.95898 15.9668C9.08268 15.2467 11.4297 14.8867 14 14.8867C16.5703 14.8867 18.9173 15.2467 21.041 15.9668C23.1647 16.6868 24.8555 17.7168 26.1133 19.0566C27.3711 20.3965 28 21.9232 28 23.6367C28 24.1107 27.8268 24.5208 27.4805 24.8672C27.1341 25.2135 26.7194 25.3867 26.2363 25.3867ZM21 9.63672C20.0339 9.63672 19.209 9.20833 18.5254 8.35156C17.8418 7.49479 17.5 6.46484 17.5 5.26172C17.5 4.07682 17.6777 3.05143 18.0332 2.18555C18.3887 1.31966 18.7943 0.886719 19.25 0.886719C19.888 0.886719 20.6217 1.15104 21.4512 1.67969C22.2806 2.20833 22.9961 2.89193 23.5977 3.73047C24.1992 4.56901 24.5 5.37109 24.5 6.13672C24.5 7.28516 24.1719 8.1556 23.5156 8.74805C22.8594 9.34049 22.0208 9.63672 21 9.63672ZM7 9.63672C5.97917 9.63672 5.14062 9.34049 4.48438 8.74805C3.82812 8.1556 3.5 7.28516 3.5 6.13672C3.5 5.37109 3.80078 4.56901 4.40234 3.73047C5.00391 2.89193 5.7194 2.20833 6.54883 1.67969C7.37826 1.15104 8.11198 0.886719 8.75 0.886719C9.20573 0.886719 9.61133 1.31966 9.9668 2.18555C10.3223 3.05143 10.5 4.07682 10.5 5.26172C10.5 6.46484 10.1582 7.49479 9.47461 8.35156C8.79102 9.20833 7.96615 9.63672 7 9.63672Z" fill="#333333"/>
</svg>
