<svg width="25" height="32" viewBox="0 0 25 32" fill="none" xmlns="http://www.w3.org/2000/svg">
<path fill-rule="evenodd" clip-rule="evenodd" d="M14.9414 7.99048C14.8275 7.99022 14.7147 7.96451 14.6096 7.91483C14.5045 7.86515 14.409 7.79246 14.3287 7.70095C14.2484 7.60943 14.1848 7.50087 14.1415 7.38148C14.0983 7.26209 14.0763 7.13422 14.0768 7.00519C14.0777 5.67341 13.6124 4.39556 12.7827 3.45179C11.953 2.50802 10.8268 1.97536 9.65093 1.97058C8.47521 1.97536 7.34916 2.50808 6.51978 3.45191C5.69041 4.39574 5.22543 5.6736 5.22684 7.00519C5.23213 7.13765 5.21366 7.26995 5.17255 7.3941C5.13144 7.51825 5.06853 7.63168 4.98764 7.72753C4.90675 7.82339 4.80954 7.89968 4.70189 7.9518C4.59424 8.00392 4.47838 8.03079 4.3613 8.03079C4.24423 8.03079 4.12836 8.00392 4.02071 7.9518C3.91306 7.89968 3.81586 7.82339 3.73496 7.72753C3.65407 7.63168 3.59117 7.51825 3.55005 7.3941C3.50894 7.26995 3.49047 7.13765 3.49576 7.00519C3.49576 3.14212 6.25772 0 9.65093 0C13.0459 0 15.8079 3.14212 15.8079 7.00519C15.8083 7.13439 15.7863 7.26242 15.7429 7.38194C15.6996 7.50146 15.6359 7.61011 15.5553 7.70165C15.4748 7.7932 15.3792 7.86584 15.2738 7.9154C15.1685 7.96497 15.0555 7.99048 14.9414 7.99048V7.99048Z" fill="url(#paint0_linear)"/>
<path fill-rule="evenodd" clip-rule="evenodd" d="M20.2425 7.99048C20.1287 7.98996 20.0161 7.96406 19.9112 7.91426C19.8063 7.86446 19.711 7.79173 19.6309 7.70024C19.5507 7.60875 19.4873 7.50028 19.4442 7.38102C19.4011 7.26176 19.3791 7.13406 19.3796 7.00519C19.3796 4.22955 17.401 1.97059 14.9732 1.97059C14.8595 1.97006 14.7469 1.94416 14.6419 1.89436C14.537 1.84456 14.4418 1.77184 14.3616 1.68034C14.2815 1.58885 14.2181 1.48038 14.175 1.36112C14.1318 1.24186 14.1099 1.11416 14.1104 0.985293C14.1099 0.856428 14.1318 0.728721 14.175 0.609464C14.2181 0.490207 14.2815 0.381735 14.3616 0.290242C14.4418 0.198749 14.537 0.126026 14.6419 0.0762266C14.7469 0.0264268 14.8595 0.000524905 14.9732 0C18.354 0 21.1071 3.14212 21.1071 7.00519C21.1076 7.26563 21.0168 7.51564 20.8547 7.70036C20.6926 7.88508 20.4724 7.98942 20.2425 7.99048V7.99048Z" fill="url(#paint1_linear)"/>
<path fill-rule="evenodd" clip-rule="evenodd" d="M21.215 6.16611V32H23.565C24.1432 32 24.6154 31.4913 24.6154 30.8665V7.2195C24.6154 6.59067 24.1432 6.08801 23.565 6.08801L21.215 6.16611Z" fill="url(#paint2_linear)"/>
<path fill-rule="evenodd" clip-rule="evenodd" d="M1.0627 6.08801C0.479187 6.08801 0 6.59267 0 7.2195V30.8665C0 31.4913 0.479187 32 1.0627 32H19.286L19.2966 6.08801H1.0627Z" fill="url(#paint3_linear)"/>
<defs>
<linearGradient id="paint0_linear" x1="9.65137" y1="0" x2="9.65137" y2="8.03079" gradientUnits="userSpaceOnUse">
<stop stop-color="#2F80ED"/>
<stop offset="1" stop-color="#0059D1"/>
</linearGradient>
<linearGradient id="paint1_linear" x1="17.6087" y1="0" x2="17.6087" y2="7.99048" gradientUnits="userSpaceOnUse">
<stop stop-color="#2F80ED"/>
<stop offset="1" stop-color="#0059D1"/>
</linearGradient>
<linearGradient id="paint2_linear" x1="22.9152" y1="6.08801" x2="22.9152" y2="32" gradientUnits="userSpaceOnUse">
<stop stop-color="#2F80ED"/>
<stop offset="1" stop-color="#0059D1"/>
</linearGradient>
<linearGradient id="paint3_linear" x1="9.64829" y1="6.08801" x2="9.64829" y2="32" gradientUnits="userSpaceOnUse">
<stop stop-color="#2F80ED"/>
<stop offset="1" stop-color="#0059D1"/>
</linearGradient>
</defs>
</svg>
