<svg width="21" height="21" viewBox="0 0 21 21" fill="none" xmlns="http://www.w3.org/2000/svg">
<path d="M2.625 5.25H4.375H18.375" stroke="black" stroke-width="2" stroke-linecap="round" stroke-linejoin="round"/>
<path d="M7 5.25V3.5C7 3.03587 7.18437 2.59075 7.51256 2.26256C7.84075 1.93437 8.28587 1.75 8.75 1.75H12.25C12.7141 1.75 13.1592 1.93437 13.4874 2.26256C13.8156 2.59075 14 3.03587 14 3.5V5.25M16.625 5.25V17.5C16.625 17.9641 16.4406 18.4092 16.1124 18.7374C15.7842 19.0656 15.3391 19.25 14.875 19.25H6.125C5.66087 19.25 5.21575 19.0656 4.88756 18.7374C4.55937 18.4092 4.375 17.9641 4.375 17.5V5.25H16.625Z" stroke="black" stroke-width="2" stroke-linecap="round" stroke-linejoin="round"/>
<path d="M8.75 9.625V14.875" stroke="black" stroke-width="2" stroke-linecap="round" stroke-linejoin="round"/>
<path d="M12.25 9.625V14.875" stroke="black" stroke-width="2" stroke-linecap="round" stroke-linejoin="round"/>
</svg>
