<svg width="50" height="40" viewBox="0 0 50 40" fill="none" xmlns="http://www.w3.org/2000/svg">
<path d="M40.8073 17.8773C40.8073 17.8773 41.467 21.0742 41.6146 21.7445H38.7153C39.0017 20.9797 40.1042 18.0063 40.1042 18.0063C40.0868 18.032 40.3906 17.2242 40.5642 16.7258L40.8073 17.8773ZM50 4.875V35.125C50 37.4023 48.1337 39.25 45.8333 39.25H4.16667C1.86632 39.25 0 37.4023 0 35.125V4.875C0 2.59766 1.86632 0.75 4.16667 0.75H45.8333C48.1337 0.75 50 2.59766 50 4.875ZM13.2378 26.4625L18.724 13.125H15.0347L11.6233 22.2344L11.25 20.3867L10.0347 14.2508C9.83507 13.4 9.21875 13.1594 8.45486 13.125H2.83854L2.77778 13.3914C4.14931 13.7352 5.37326 14.2336 6.44097 14.8609L9.54861 26.4625H13.2378ZM21.4323 26.4797L23.6198 13.125H20.1302L17.9514 26.4797H21.4323V26.4797ZM33.5764 22.1141C33.5937 20.593 32.6562 19.4328 30.651 18.4789C29.4271 17.8688 28.6806 17.4563 28.6806 16.8289C28.6979 16.2617 29.3142 15.6773 30.6858 15.6773C31.8229 15.6516 32.6562 15.918 33.2812 16.1844L33.5937 16.3305L34.0712 13.443C33.3854 13.1766 32.2917 12.8758 30.9462 12.8758C27.5 12.8758 25.0781 14.6977 25.0608 17.293C25.0347 19.2094 26.7969 20.275 28.1163 20.9195C29.4618 21.5727 29.9219 22.0023 29.9219 22.5781C29.9045 23.4719 28.8281 23.8844 27.8299 23.8844C26.441 23.8844 25.6944 23.6695 24.5573 23.1711L24.0972 22.9562L23.6111 25.9555C24.4271 26.325 25.9375 26.6516 27.5 26.6688C31.1632 26.6773 33.5503 24.8813 33.5764 22.1141ZM45.8333 26.4797L43.0208 13.125H40.3212C39.4878 13.125 38.8542 13.3656 38.4983 14.2336L33.316 26.4797H36.9792C36.9792 26.4797 37.5781 24.8297 37.7083 24.4773H42.1875C42.2917 24.95 42.6042 26.4797 42.6042 26.4797H45.8333Z" fill="#F2F2F2"/>
</svg>
